<svg xmlns="http://www.w3.org/2000/svg" aria-hidden="true" style="position:absolute;width:0;height:0;overflow:hidden">>
  <defs>  
    <symbol id="arrow-pointer" viewBox="0 0 320 512">
        <path d="M0 55.2V426a22 22 0 0 0 22 22c6.3 0 12.4-2.7 16.6-7.5l82.6-94.5 58.1 116.3a31.97 31.97 0 1 0 57.2-28.6L179.8 320h118.1a22.1 22.1 0 0 0 14.7-38.6L38.6 37.9A23.15 23.15 0 0 0 0 55.2z"/>
    </symbol>

    <symbol id="curve-icon" viewBox="0 0 512 512">
        <path d="M105.1 202.6c7.7-21.8 20.2-42.3 37.8-59.8 62.5-62.5 163.8-62.5 226.3 0l17.1 17.2H352c-17.7 0-32 14.3-32 32s14.3 32 32 32h111.9c17.7 0 32-14.3 32-32V80c0-17.7-14.3-32-32-32s-32 14.3-32 32v35.2l-17.5-17.6c-87.5-87.5-229.3-87.5-316.8 0-24.4 24.4-42 53.1-52.8 83.8-5.9 16.7 2.9 34.9 19.5 40.8s34.9-2.9 40.8-19.5zM39 289.3c-5 1.5-9.8 4.2-13.7 8.2-4 4-6.7 8.8-8.1 14-.3 1.2-.6 2.5-.8 3.8-.3 1.7-.4 3.4-.4 5.1V432c0 17.7 14.3 32 32 32s32-14.3 32-32v-35.1l17.6 17.5c87.5 87.4 229.3 87.4 316.7 0 24.4-24.4 42.1-53.1 52.9-83.8 5.9-16.7-2.9-34.9-19.5-40.8s-34.9 2.9-40.8 19.5c-7.7 21.8-20.2 42.3-37.8 59.8-62.5 62.5-163.8 62.5-226.3 0l-.1-.1-17.1-17H160c17.7 0 32-14.3 32-32s-14.3-32-32-32H48.4c-1.6 0-3.2.1-4.8.3s-3.1.5-4.6 1z"/>
    </symbol>

    <symbol id="heart-icon" viewBox="0 0 512 512">
        <path d="m47.6 300.4 180.7 168.7c7.5 7 17.4 10.9 27.7 10.9s20.2-3.9 27.7-10.9l180.7-168.7c30.4-28.3 47.6-68 47.6-109.5v-5.8A142.92 142.92 0 0 0 268 84l-12 12-12-12A142.92 142.92 0 0 0 0 185.1v5.8c0 41.5 17.2 81.2 47.6 109.5z"/>    
    </symbol>

    <symbol id="time-icon" viewBox="0 0 384 512">
        <path d="M32 0C14.3 0 0 14.3 0 32s14.3 32 32 32v11c0 42.4 16.9 83.1 46.9 113.1l67.8 67.9-67.8 67.9C48.9 353.9 32 394.6 32 437v11c-17.7 0-32 14.3-32 32s14.3 32 32 32h320c17.7 0 32-14.3 32-32s-14.3-32-32-32v-11c0-42.4-16.9-83.1-46.9-113.1L237.3 256l67.9-67.9c30-30 46.9-70.7 46.9-113.1V64c17.7 0 32-14.3 32-32s-14.3-32-32-32H32zm64 75V64h192v11c0 19-5.6 37.4-16 53H112c-10.3-15.6-16-34-16-53zm16 309c3.5-5.3 7.6-10.3 12.1-14.9l67.9-67.8 67.9 67.9c4.6 4.6 8.6 9.6 12.1 14.9l-160-.1z"/>    
    </symbol>

    <symbol id="icon-triangle" viewBox="0 0 29 32">
      <path d="M27.34 14.3a1.9 1.9 0 0 1 0 3.29L3.7 31.16a1.9 1.9 0 0 1-2.84-1.64V2.38A1.9 1.9 0 0 1 3.7.73L27.34 14.3z"/>
    </symbol>
    <symbol id="icon-brg-menu" viewBox="0 0 29 32">
      <path stroke-linecap="round" stroke-linejoin="round" stroke-width="3.1" d="M3.61 16H25.3M3.61 8H25.3M3.61 24H25.3"/>
    </symbol>
    </defs>
</svg>
